<svg width="10" height="10" viewBox="0 0 10 10" fill="none" xmlns="http://www.w3.org/2000/svg">
<path d="M0.518213 8.13127C0.200766 8.39735 0.159128 8.87039 0.425212 9.18784C0.691295 9.50529 1.16434 9.54693 1.48179 9.28084L0.518213 8.13127ZM9.74712 2.06621C9.78344 1.6536 9.47839 1.28966 9.06577 1.25334L2.34177 0.661485C1.92915 0.625166 1.56522 0.930216 1.5289 1.34283C1.49258 1.75545 1.79763 2.11939 2.21025 2.15571L8.18714 2.6818L7.66104 8.65869C7.62472 9.07131 7.92977 9.43525 8.34239 9.47157C8.75501 9.50789 9.11895 9.20284 9.15527 8.79022L9.74712 2.06621ZM1.48179 9.28084L9.4818 2.57524L8.51822 1.42566L0.518213 8.13127L1.48179 9.28084Z" fill="#45C2B1"/>
</svg>
