<?xml version="1.0" encoding="utf-8"?>
<!-- Svg Vector Icons : http://www.onlinewebfonts.com/icon -->
<!DOCTYPE svg PUBLIC "-//W3C//DTD SVG 1.1//EN" "http://www.w3.org/Graphics/SVG/1.1/DTD/svg11.dtd">
<svg version="1.1" xmlns="http://www.w3.org/2000/svg" xmlns:xlink="http://www.w3.org/1999/xlink" x="0px" y="0px" viewBox="0 0 256 256" enable-background="new 0 0 256 256" xml:space="preserve">
<metadata> Svg Vector Icons : http://www.onlinewebfonts.com/icon </metadata>
<g><g><path fill="#000000" d="M182.9,83.8c6,0,10.6,0.4,13.7,1.3c3.2,0.8,5.9,2.5,8.2,4.9c0.9,1,2.3,2.5,4.2,4.6c1.9,2,4.1,4.4,6.6,7c2.5,2.6,5,5.3,7.7,8.2c2.6,2.9,5.2,5.7,7.5,8.2c2.4,2.6,4.5,4.9,6.4,6.9c1.9,2,3.1,3.5,3.8,4.4c0.9,1,1.6,1.7,2.2,2.2c0.6,0.5,1.1,1,1.6,1.6c0.4,0.6,0.7,1.3,0.9,2c0.2,0.8,0.3,1.9,0.3,3.4c0,1.1,0,2.7-0.1,5c-0.1,2.2-0.1,4.6-0.1,7.1v7.5v5.2c0,2.5-1.4,4.6-4.4,6.4c-2.9,1.7-7.1,2.6-12.5,2.6h-203c-5.1,0-9-0.8-11.6-2.5c-2.6-1.6-4.1-3.8-4.2-6.4v-4.7c0-2,0-4.2,0.1-6.5c0.1-2.3,0.1-4.6,0.1-7v-5.6c0-1.5,0-2.7,0.1-3.6c0.1-0.9,0.3-1.7,0.7-2.3c0.4-0.7,0.7-1.4,1.2-2c0.4-0.7,1.1-1.6,2-2.7c0.5-0.7,1.7-2,3.4-4.1c1.8-2,3.9-4.3,6.4-6.9c2.5-2.6,5.2-5.3,8-8.3c2.9-3,5.6-5.7,8.2-8.4c2.5-2.6,4.9-5,7-7l4.2-4.4c2.3-2.3,5.1-3.9,8.5-4.7c3.4-0.8,7.3-1.2,11.9-1.2L182.9,83.8L182.9,83.8z"/><path fill="#000000" d="M135.5,164.5c0,1.7-1.4,3.1-3.1,3.1H118c-1.7,0-3.1-1.4-3.1-3.1v-14.4c0-1.7,1.4-3.1,3.1-3.1h14.5c1.7,0,3.1,1.4,3.1,3.1V164.5z"/><path fill="#000000" d="M207.8,162.5c0,1.2-1,2.2-2.2,2.2h-10.4c-1.2,0-2.2-1-2.2-2.2v-10.4c0-1.2,1-2.2,2.2-2.2h10.4c1.2,0,2.2,1,2.2,2.2V162.5z"/><path fill="#000000" d="M177.4,158.3c-0.3,0.3-0.7,0.5-0.7,0.6c-0.7,0.6-1.9,1.3-2,1.3c-0.2,0.1-1.1,0.5-1.5,0.6c-0.5,0.1-0.6,0.1-0.9,0.1h-11.8c-0.3,0-0.5,0-0.8-0.1c-1.4-0.4-3.3-1.2-4.5-2.4c-0.2-0.2-0.4-0.4-0.5-0.7l-0.2-0.4c-0.3-0.5-0.3-1-0.1-1.5c0.4-1.2,1.6-2.1,3-2.1h18.2c1.4,0,2,0.8,2.3,1.2c0.6,0.9,0.7,1.7,0.4,2.4c-0.1,0.3-0.1,0.2-0.3,0.5L177.4,158.3z"/><path fill="#000000" d="M79.5,164.7c0,1.7-1.4,3.1-3.1,3.1h-1.8c-1.7,0-3.1-1.4-3.1-3.1v-14.7c0-1.7,1.4-3.1,3.1-3.1h1.8c1.7,0,3.1,1.4,3.1,3.1V164.7z"/><path fill="#000000" d="M94.4,164.7c0,1.7-1.4,3.1-3.1,3.1h-1.8c-1.7,0-3.1-1.4-3.1-3.1v-14.7c0-1.7,1.4-3.1,3.1-3.1h1.8c1.7,0,3.1,1.4,3.1,3.1V164.7z"/><path fill="#000000" d="M35.8,157.3c0,3.7,3,6.6,6.6,6.6s6.6-3,6.6-6.6l0,0c0-3.7-3-6.6-6.6-6.6S35.8,153.6,35.8,157.3z"/></g></g>
</svg>