<svg xmlns="http://www.w3.org/2000/svg" version="1.1" xmlns:xlink="http://www.w3.org/1999/xlink" xmlns:svgjs="http://svgjs.dev/svgjs" width="1500" height="1500" viewBox="0 0 1500 1500"><rect width="1500" height="1500" fill="#000000"></rect><g transform="matrix(0.6666666666666666,0,0,0.6666666666666666,249.39393939393938,438.58569500674764)"><svg viewBox="0 0 396 247" data-background-color="#000000" preserveAspectRatio="xMidYMid meet" height="935" width="1500" xmlns="http://www.w3.org/2000/svg" xmlns:xlink="http://www.w3.org/1999/xlink"><g id="tight-bounds" transform="matrix(1,0,0,1,0.2400000000000091,-0.09999999999999432)"><svg viewBox="0 0 395.52 247.2" height="247.2" width="395.52"><g><svg></svg></g><g><svg viewBox="0 0 395.52 247.2" height="247.2" width="395.52"><g transform="matrix(1,0,0,1,98.80112230477354,47.215199999999996)"><svg viewBox="0 0 197.9177553904529 152.7696" height="152.7696" width="197.9177553904529"><g><svg viewBox="0 0 197.9177553904529 152.7696" height="152.7696" width="197.9177553904529"><g><svg viewBox="0 0 244.43135999999996 188.67271923627155" height="152.7696" width="197.9177553904529"><g transform="matrix(1,0,0,1,0,85.1204828081065)"><svg viewBox="0 0 244.43135999999996 103.55223642816505" height="103.55223642816505" width="244.43135999999996"><g id="textblocktransform"><svg viewBox="0 0 244.43135999999996 103.55223642816505" height="103.55223642816505" width="244.43135999999996" id="textblock"><g><svg viewBox="0 0 244.43135999999996 57.464068504398824" height="57.464068504398824" width="244.43135999999996"><g transform="matrix(1,0,0,1,0,0)"><svg width="244.43135999999996" viewBox="4.05 -35.6 204.57999999999998 48.1" height="57.464068504398824" data-palette-color="#89939e"><path d="M13 0L4.05 0 4.05-34.85 13.05-34.85Q20.63-34.85 24.74-30.61 28.85-26.38 28.85-17.85L28.85-17.85Q28.85-12.4 27.03-8.39 25.2-4.38 21.66-2.19 18.13 0 13 0L13 0ZM12.85-29.85L12.85-29.85 10.5-29.85 10.5-5.5 12.85-5.5Q15.6-5.5 17.43-6.54 19.25-7.58 20.34-9.31 21.43-11.05 21.89-13.24 22.35-15.43 22.35-17.7L22.35-17.7Q22.35-20.85 21.48-23.63 20.6-26.4 18.53-28.13 16.45-29.85 12.85-29.85ZM43.95 0.5L43.95 0.5Q38.45 0.5 35.45-2.95 32.45-6.4 32.45-12.5L32.45-12.5Q32.45-18.65 35.55-22.08 38.65-25.5 44.15-25.5L44.15-25.5Q49.67-25.5 52.56-21.96 55.45-18.43 55.45-12.5L55.45-12.5Q55.45-6.58 52.46-3.04 49.47 0.5 43.95 0.5ZM44.05-4.5L44.05-4.5Q48.8-4.5 48.8-12.5L48.8-12.5Q48.8-20.55 44.05-20.55L44.05-20.55Q41.7-20.55 40.4-18.69 39.1-16.82 39.1-12.5L39.1-12.5Q39.1-8.2 40.4-6.35 41.7-4.5 44.05-4.5ZM68-28.95L61-28.95 61-35.6 68-35.6 68-28.95ZM59.95 12.5L59.95 12.5 57.8 8.7Q59.37 8.65 60.36 7.01 61.34 5.38 61.34 2.9L61.34 2.9 61.34-24.9 67.55-24.9 67.55 3.15Q67.45 7.98 65.45 10.13 63.45 12.28 59.95 12.5ZM80.04 0.7L80.04 0.7Q77.74 0.7 76.23-0.33 74.72-1.35 73.98-3.05 73.24-4.75 73.24-6.8L73.24-6.8Q73.24-7.95 73.83-9.33 74.42-10.7 75.92-11.95 77.42-13.2 80.14-14 82.87-14.8 87.14-14.8L87.14-14.8 87.14-15.95Q87.14-17.8 86.25-19.03 85.37-20.25 82.69-20.25L82.69-20.25Q80.74-20.25 78.88-19.59 77.02-18.93 76.14-17.95L76.14-17.95 74.14-22.75Q75.64-23.78 78.16-24.64 80.67-25.5 83.74-25.5L83.74-25.5Q87.44-25.5 89.49-24.38 91.54-23.25 92.37-21.19 93.19-19.13 93.19-16.35L93.19-16.35 93.19 0 87.84 0 87.39-3.55Q84.79 0.7 80.04 0.7ZM82.69-4.1L82.69-4.1Q83.82-4.1 85.11-5.01 86.39-5.93 87.14-7.35L87.14-7.35 87.14-10.9Q86.89-10.95 86.61-10.95 86.32-10.95 85.94-10.95L85.94-10.95Q84.57-10.95 83.06-10.64 81.54-10.33 80.49-9.55 79.44-8.78 79.44-7.4L79.44-7.4Q79.44-5.6 80.24-4.85 81.04-4.1 82.69-4.1ZM106.29 0L99.89 0 99.89-24.9 105.69-24.9 105.81-21.63Q106.79-23.13 108.54-24.31 110.29-25.5 113.14-25.5L113.14-25.5Q116.94-25.5 118.79-23.1 120.64-20.7 120.64-16.45L120.64-16.45 120.64 0 114.24 0 114.24-15.9Q114.24-17.98 113.36-19.26 112.49-20.55 110.69-20.55L110.69-20.55Q108.94-20.55 107.61-19.26 106.29-17.98 106.29-15.9L106.29-15.9 106.29 0ZM128.49 9L131.29 4.3Q132.19 4.85 133.47 5.3 134.76 5.75 136.49 5.75L136.49 5.75Q139.69 5.75 141.29 4.09 142.89 2.43 142.89-1.2L142.89-1.2 142.89-5.1Q142.54-3.83 141.79-2.58 141.04-1.33 139.72-0.51 138.41 0.3 136.39 0.3L136.39 0.3Q133.56 0.3 131.28-0.99 128.99-2.27 127.64-5.08 126.29-7.88 126.29-12.4L126.29-12.4Q126.29-17 127.63-19.89 128.96-22.78 131.22-24.14 133.49-25.5 136.24-25.5L136.24-25.5Q139.31-25.5 140.94-23.95 142.56-22.4 142.89-20.6L142.89-20.6 143.59-24.9 148.49-24.9 148.49-1.2Q148.49 4.53 145.6 7.86 142.71 11.2 137.09 11.2L137.09 11.2Q134.06 11.2 131.84 10.44 129.61 9.68 128.49 9L128.49 9ZM137.64-4.6L137.64-4.6Q139.81-4.6 141.05-6.66 142.29-8.72 142.29-12.5L142.29-12.5Q142.29-16.07 141.21-18.26 140.14-20.45 137.84-20.45L137.84-20.45Q136.56-20.45 135.4-19.69 134.24-18.93 133.49-17.18 132.74-15.43 132.74-12.45L132.74-12.45Q132.74-8.4 134.13-6.5 135.51-4.6 137.64-4.6ZM171.38-12.3L155.44-12.3 155.44-17.2 171.38-17.2 171.38-12.3ZM185.23-28.95L178.23-28.95 178.23-35.6 185.23-35.6 185.23-28.95ZM177.18 12.5L177.18 12.5 175.03 8.7Q176.61 8.65 177.59 7.01 178.58 5.38 178.58 2.9L178.58 2.9 178.58-24.9 184.78-24.9 184.78 3.15Q184.68 7.98 182.68 10.13 180.68 12.28 177.18 12.5ZM199.08 0.45L199.08 0.45Q196.36 0.45 194.62-0.06 192.88-0.58 191.92-1.24 190.96-1.9 190.58-2.35L190.58-2.35 192.43-7.1Q193.53-6.2 195.24-5.33 196.96-4.45 199.23-4.45L199.23-4.45Q201.01-4.45 201.72-5.18 202.43-5.9 202.43-6.75L202.43-6.75Q202.43-7.93 200.81-8.88 199.18-9.83 197.03-10.75L197.03-10.75Q195.76-11.3 194.33-12.15 192.91-13 191.89-14.4 190.88-15.8 190.88-18L190.88-18Q190.88-21.38 193.34-23.39 195.81-25.4 200.33-25.4L200.33-25.4Q203.23-25.4 205.24-24.54 207.26-23.68 207.93-23L207.93-23 206.23-18.5Q205.26-19.25 203.76-19.93 202.26-20.6 200.53-20.6L200.53-20.6Q198.63-20.6 197.88-20.1 197.13-19.6 197.13-18.5L197.13-18.5Q197.13-17.28 198.47-16.49 199.81-15.7 201.68-14.95L201.68-14.95Q204.81-13.73 206.72-11.94 208.63-10.15 208.63-7.4L208.63-7.4Q208.63-5.35 207.68-3.56 206.73-1.78 204.63-0.66 202.53 0.45 199.08 0.45Z" opacity="1" transform="matrix(1,0,0,1,0,0)" fill="#89939e" class="wordmark-text-0" data-fill-palette-color="primary" id="text-0"></path></svg></g></svg></g><g transform="matrix(1,0,0,1,0,71.02995594064328)"><svg viewBox="0 0 244.43135999999996 32.52228048752176" height="32.52228048752176" width="244.43135999999996"><g transform="matrix(1,0,0,1,0,0)"><svg width="244.43135999999996" viewBox="2.8 -34.8 344.56 45.849999999999994" height="32.52228048752176" data-palette-color="#dedede"><path d="M4.65 0.6L4.65 0.6Q3.75 0.6 3.28-0.5 2.8-1.6 2.8-2.95L2.8-2.95Q2.8-4.9 3.25-9.3L3.25-9.3 5.75-34 13.45-34Q17-34 19.07-34.13 21.15-34.25 22.23-34.38 23.3-34.5 23.8-34.5L23.8-34.5Q24.35-34.5 24.58-34.33 24.8-34.15 24.8-33.4L24.8-33.4Q24.8-32.5 24.45-31.45 24.1-30.4 23.53-29.65 22.95-28.9 22.2-28.9L22.2-28.9Q21.7-28.9 20.55-29.05 19.4-29.2 17.95-29.4L17.95-29.4 11.45-30.25 9.2-7.95Q9.1-6.9 9.1-5.85 9.1-4.8 9.25-3.75L9.25-3.75 19.95-5.85Q20.85-6.05 21.48-6.18 22.1-6.3 22.3-6.3L22.3-6.3Q22.9-6.3 22.9-5.6L22.9-5.6Q22.9-4.35 22.48-3.05 22.05-1.75 21.3-0.88 20.55 0 19.45 0L19.45 0 17.95 0Q12.35 0 9.15 0.3 5.95 0.6 4.65 0.6ZM13.6-15.85L7.2-15.75 7.85-19.6 10.25-19.6Q12.4-19.6 14.3-19.75 16.2-19.9 17.5-20.05 18.8-20.2 19.15-20.2L19.15-20.2Q19.55-20.2 19.75-19.98 19.95-19.75 19.95-19.35L19.95-19.35Q19.95-18.6 18.95-17.8 17.95-17 16.48-16.45 15-15.9 13.6-15.85L13.6-15.85ZM46.25 0.5L42.7 0.5Q42.15 0.5 41.87-0.03 41.6-0.55 41.52-1.2 41.45-1.85 41.45-2.25L41.45-2.25Q41.45-2.95 41.55-4.05 41.65-5.15 41.8-6.38 41.95-7.6 42.1-8.5L42.1-8.5 42.95-13.7Q43.1-14.7 43.25-15.58 43.4-16.45 43.4-17.45L43.4-17.45Q43.4-18.2 43.1-18.6 42.8-19 42.3-19L42.3-19Q41.65-19 40.15-17.75 38.65-16.5 36.95-14.18 35.25-11.85 33.87-8.6 32.5-5.35 32.1-1.35L32.1-1.35 30.8-8.75Q32.3-13.1 34.17-16.1 36.05-19.1 38-20.95 39.95-22.8 41.77-23.65 43.6-24.5 45-24.5L45-24.5Q46.5-24.5 47.42-23.95 48.35-23.4 48.77-22.43 49.2-21.45 49.2-20.15L49.2-20.15Q49.2-18.9 49.02-17.68 48.85-16.45 48.65-15.15L48.65-15.15 46.25 0.5ZM27.75 0.7L27.75 0.7Q27.1 0.7 26.77 0.48 26.45 0.25 26.42-0.7 26.4-1.65 26.65-3.75L26.65-3.75 29-24.55 32.5-24.55Q33.25-24.55 33.85-23.45 34.45-22.35 34.45-20.95L34.45-20.95Q34.45-20.3 34.07-18.93 33.7-17.55 33.2-16.03 32.7-14.5 32.3-13.35L32.3-13.35 31-9.25 32.85-9.55 32.05-1.35Q32-0.85 31.45-0.45 30.9-0.05 30.15 0.2 29.4 0.45 28.72 0.58 28.05 0.7 27.75 0.7ZM57.85 0.8L57.85 0.8Q55.45 0.8 54.47-0.6 53.5-2 53.85-5L53.85-5 55.8-20.25 54.2-20.25Q53.45-20.25 53.45-21.05L53.45-21.05Q53.45-21.55 54.12-22.5 54.8-23.45 55.85-24.6 56.9-25.75 58.02-26.8 59.15-27.85 60.1-28.53 61.05-29.2 61.55-29.2L61.55-29.2Q62.1-29.2 62.3-28.78 62.5-28.35 62.4-27.7L62.4-27.7 61.95-23.75 67.55-23.75Q68.3-23.75 68.42-23.5 68.55-23.25 68.34-22.7L68.34-22.7Q67.75-21 67.22-20.63 66.7-20.25 65.3-20.25L65.3-20.25 61.3-20.25 60.05-9.55Q59.95-8.6 59.87-7.75 59.8-6.9 59.8-6.2L59.8-6.2Q59.8-5.05 60.35-4.58 60.9-4.1 62.15-4.1L62.15-4.1Q63.35-4.1 64.22-4.6 65.09-5.1 65.45-5.1L65.45-5.1Q65.84-5.1 65.84-4.6L65.84-4.6Q65.84-4.1 65.32-3.2 64.8-2.3 63.77-1.38 62.75-0.45 61.25 0.18 59.75 0.8 57.85 0.8ZM76.34 0.8L76.34 0.8Q72.49 0.8 70.39-1.63 68.29-4.05 68.29-8.3L68.29-8.3Q68.29-11.85 69.29-14.8 70.29-17.75 72.09-19.95 73.89-22.15 76.32-23.35 78.74-24.55 81.59-24.55L81.59-24.55Q84.99-24.55 86.79-23.1 88.59-21.65 88.59-18.95L88.59-18.95Q88.59-16.2 86.77-14.15 84.94-12.1 81.52-10.65 78.09-9.2 73.34-8.2L73.34-8.2 72.69-11.2Q75.44-11.55 77.74-12.4 80.04-13.25 81.44-14.68 82.84-16.1 82.84-18.05L82.84-18.05Q82.84-19.4 82.32-20.1 81.79-20.8 80.44-20.8L80.44-20.8Q78.39-20.8 76.97-19.3 75.54-17.8 74.82-15.4 74.09-13 74.09-10.3L74.09-10.3Q74.09-6.65 75.22-5.43 76.34-4.2 78.54-4.2L78.54-4.2Q80.84-4.2 82.57-4.93 84.29-5.65 85.54-6.45L85.54-6.45Q85.94-6.7 86.24-6.85 86.54-7 86.74-7L86.74-7Q86.99-7 87.14-6.8 87.29-6.6 87.29-6.35L87.29-6.35Q87.29-5.45 86.49-4.25 85.69-3.05 84.22-1.9 82.74-0.75 80.74 0.03 78.74 0.8 76.34 0.8ZM96.74-1.2L96.74-1.2 95.54-8.75Q97.39-13.55 99.32-17.07 101.24-20.6 103.24-22.55 105.24-24.5 107.29-24.5L107.29-24.5Q108.44-24.5 108.94-23.78 109.44-23.05 109.44-21.95L109.44-21.95Q109.44-20.95 109.22-20.03 108.99-19.1 108.57-18.5 108.14-17.9 107.54-17.9L107.54-17.9Q106.99-17.9 106.32-18.25 105.64-18.6 104.49-18.6L104.49-18.6Q103.74-18.6 102.59-17.05 101.44-15.5 100.22-12.93 98.99-10.35 98.04-7.28 97.09-4.2 96.74-1.2ZM92.54 0.7L92.54 0.7Q91.89 0.7 91.57 0.48 91.24 0.25 91.22-0.7 91.19-1.65 91.44-3.75L91.44-3.75 93.79-24.55 97.29-24.55Q98.04-24.55 98.64-23.45 99.24-22.35 99.24-20.95L99.24-20.95Q99.24-20.3 98.87-18.93 98.49-17.55 97.99-16.03 97.49-14.5 97.09-13.35L97.09-13.35 95.79-9.25 97.64-9.55 96.74-1.2Q96.69-0.7 96.14-0.33 95.59 0.05 94.87 0.28 94.14 0.5 93.49 0.6 92.84 0.7 92.54 0.7ZM127.54 0.8L127.54 0.8Q125.14 0.8 124.16-0.6 123.19-2 123.54-5L123.54-5 125.49-20.25 123.89-20.25Q123.14-20.25 123.14-21.05L123.14-21.05Q123.14-21.55 123.81-22.5 124.49-23.45 125.54-24.6 126.59-25.75 127.71-26.8 128.84-27.85 129.79-28.53 130.74-29.2 131.24-29.2L131.24-29.2Q131.79-29.2 131.99-28.78 132.19-28.35 132.09-27.7L132.09-27.7 131.64-23.75 137.24-23.75Q137.99-23.75 138.11-23.5 138.24-23.25 138.04-22.7L138.04-22.7Q137.44-21 136.91-20.63 136.39-20.25 134.99-20.25L134.99-20.25 130.99-20.25 129.74-9.55Q129.64-8.6 129.56-7.75 129.49-6.9 129.49-6.2L129.49-6.2Q129.49-5.05 130.04-4.58 130.59-4.1 131.84-4.1L131.84-4.1Q133.04-4.1 133.91-4.6 134.79-5.1 135.14-5.1L135.14-5.1Q135.54-5.1 135.54-4.6L135.54-4.6Q135.54-4.1 135.01-3.2 134.49-2.3 133.46-1.38 132.44-0.45 130.94 0.18 129.44 0.8 127.54 0.8ZM159.23 0.5L155.58 0.5Q155.18 0.5 154.91-0.03 154.63-0.55 154.53-1.2 154.43-1.85 154.43-2.25L154.43-2.25Q154.43-2.95 154.53-4.05 154.63-5.15 154.78-6.38 154.93-7.6 155.08-8.5L155.08-8.5 155.93-13.7Q156.08-14.7 156.23-15.58 156.38-16.45 156.38-17.45L156.38-17.45Q156.38-18.2 156.08-18.6 155.78-19 155.28-19L155.28-19Q154.63-19 153.16-17.78 151.68-16.55 150.01-14.25 148.33-11.95 146.96-8.68 145.58-5.4 145.18-1.25L145.18-1.25 143.93-8.75Q145.98-14.55 148.53-18 151.08-21.45 153.58-22.98 156.08-24.5 157.98-24.5L157.98-24.5Q160.18-24.5 161.18-23.23 162.18-21.95 162.18-19.95L162.18-19.95Q162.18-18.85 162.01-17.65 161.83-16.45 161.63-15.15L161.63-15.15 159.23 0.5ZM140.73 0.7L140.73 0.7Q140.08 0.7 139.76 0.43 139.43 0.15 139.43-0.8 139.43-1.75 139.63-3.75L139.63-3.75 141.78-23.45Q142.08-26.3 142.53-29.13 142.98-31.95 143.13-34.8L143.13-34.8 146.63-34.8Q147.63-34.8 148.11-33.45 148.58-32.1 148.58-30.7L148.58-30.7Q148.58-29.6 148.48-28.73 148.38-27.85 148.18-26.9 147.98-25.95 147.63-24.5L147.63-24.5 144.43-9.85 146.08-11.9Q145.73-8.7 145.53-5.85 145.33-3 145.18-1.25L145.18-1.25Q145.18-0.75 144.31-0.3 143.43 0.15 142.38 0.43 141.33 0.7 140.73 0.7ZM173.28 0.8L173.28 0.8Q169.43 0.8 167.33-1.63 165.23-4.05 165.23-8.3L165.23-8.3Q165.23-11.85 166.23-14.8 167.23-17.75 169.03-19.95 170.83-22.15 173.26-23.35 175.68-24.55 178.53-24.55L178.53-24.55Q181.93-24.55 183.73-23.1 185.53-21.65 185.53-18.95L185.53-18.95Q185.53-16.2 183.71-14.15 181.88-12.1 178.46-10.65 175.03-9.2 170.28-8.2L170.28-8.2 169.63-11.2Q172.38-11.55 174.68-12.4 176.98-13.25 178.38-14.68 179.78-16.1 179.78-18.05L179.78-18.05Q179.78-19.4 179.26-20.1 178.73-20.8 177.38-20.8L177.38-20.8Q175.33-20.8 173.91-19.3 172.48-17.8 171.76-15.4 171.03-13 171.03-10.3L171.03-10.3Q171.03-6.65 172.16-5.43 173.28-4.2 175.48-4.2L175.48-4.2Q177.78-4.2 179.51-4.93 181.23-5.65 182.48-6.45L182.48-6.45Q182.88-6.7 183.18-6.85 183.48-7 183.68-7L183.68-7Q183.93-7 184.08-6.8 184.23-6.6 184.23-6.35L184.23-6.35Q184.23-5.45 183.43-4.25 182.63-3.05 181.16-1.9 179.68-0.75 177.68 0.03 175.68 0.8 173.28 0.8ZM203.23 0.4L203.23 0.4Q202.33 0.4 201.85-0.6 201.38-1.6 201.38-2.95L201.38-2.95Q201.38-4.9 201.83-9.3L201.83-9.3 204.33-34Q207.03-34.25 209.7-34.38 212.38-34.5 214.68-34.5L214.68-34.5Q222.53-34.5 226.8-30.68 231.08-26.85 231.08-20L231.08-20Q231.08-14.2 228.63-9.68 226.18-5.15 221.55-2.58 216.93 0 210.28 0L210.28 0Q208.28 0 206.55 0.2 204.83 0.4 203.23 0.4ZM207.73-3.75L207.73-3.75Q213.13-3.75 216.85-5.73 220.58-7.7 222.5-11.23 224.43-14.75 224.43-19.4L224.43-19.4Q224.43-24.9 221.35-27.83 218.28-30.75 211.28-30.75L211.28-30.75 210.03-30.75 207.78-7.95Q207.73-7.1 207.7-6 207.68-4.9 207.73-3.75ZM242.22 0.75L242.22 0.75Q237.92 0.75 235.55-1.78 233.17-4.3 233.17-9.2L233.17-9.2Q233.17-12.45 234.25-15.23 235.32-18 237.17-20.1 239.02-22.2 241.45-23.38 243.87-24.55 246.57-24.55L246.57-24.55Q250.87-24.55 253.15-22 255.42-19.45 255.42-14.3L255.42-14.3Q255.42-11.2 254.4-8.47 253.37-5.75 251.57-3.68 249.77-1.6 247.37-0.43 244.97 0.75 242.22 0.75ZM243.42-3L243.42-3Q245.32-3 246.7-4.4 248.07-5.8 248.8-8.25 249.52-10.7 249.52-13.75L249.52-13.75Q249.52-17 248.55-18.9 247.57-20.8 245.32-20.8L245.32-20.8Q243.47-20.8 242.05-19.4 240.62-18 239.85-15.58 239.07-13.15 239.07-10.05L239.07-10.05Q239.07-6.6 240.17-4.8 241.27-3 243.42-3ZM254.22 11.05L254.22 11.05Q252.97 11.05 252 10.4 251.02 9.75 250.47 8.55 249.92 7.35 249.92 5.75L249.92 5.75Q249.92 5.25 250.15 5.03 250.37 4.8 250.57 4.8L250.57 4.8Q250.82 4.8 251.12 5.03 251.42 5.25 252.07 5.65L252.07 5.65Q253.07 6.25 254.3 6.78 255.52 7.3 256.37 7.3L256.37 7.3Q256.92 7.3 257.37 6.78 257.82 6.25 258.2 4.95 258.57 3.65 258.92 1.33 259.27-1 259.62-4.6L259.62-4.6 261.57-24.55 265.17-24.55Q265.77-24.55 266.22-23.9 266.67-23.25 266.9-22.43 267.12-21.6 267.12-20.95L267.12-20.95Q267.12-19.8 266.77-17.73 266.42-15.65 265.97-12.75 265.52-9.85 265.17-6.1L265.17-6.1 264.62 0.05Q264.27 3.9 262.82 6.35 261.37 8.8 259.15 9.93 256.92 11.05 254.22 11.05ZM264.87-27.4L264.87-27.4Q263.47-27.4 262.45-28.35 261.42-29.3 261.42-30.85L261.42-30.85Q261.42-32.7 262.62-33.73 263.82-34.75 265.37-34.75L265.37-34.75Q266.82-34.75 267.8-33.9 268.77-33.05 268.77-31.35L268.77-31.35Q268.77-29.65 267.62-28.53 266.47-27.4 264.87-27.4ZM274.62 0.8L274.62 0.8Q271.82 0.8 270.62-1.48 269.42-3.75 269.42-7.85L269.42-7.85Q269.42-11.5 270.49-14.55 271.57-17.6 273.42-19.83 275.27-22.05 277.72-23.28 280.17-24.5 282.92-24.5L282.92-24.5Q285.07-24.5 286.84-23.93 288.62-23.35 289.87-22.75L289.87-22.75 288.42-17.5Q287.07-18.4 285.39-19.15 283.72-19.9 282.29-20.33 280.87-20.75 280.17-20.75L280.17-20.75Q278.77-20.75 277.59-19.38 276.42-18 275.74-15.58 275.07-13.15 275.07-10L275.07-10Q275.07-7.1 275.49-5.6 275.92-4.1 276.87-4.1L276.87-4.1Q277.52-4.1 279.07-5.58 280.62-7.05 282.82-10.5 285.02-13.95 287.47-19.85L287.47-19.85 288.87-15.4Q286.17-9.4 283.72-5.85 281.27-2.3 279.02-0.75 276.77 0.8 274.62 0.8ZM290.07 0.5L286.57 0.5Q285.57 0.5 285.37-0.48 285.17-1.45 285.17-2.55L285.17-2.55Q285.17-3.4 285.39-4.65 285.62-5.9 285.97-7.35 286.32-8.8 286.72-10.2L286.72-10.2 287.82-13.95 286.37-15.25 287.57-22.8Q289.17-23.05 290.39-23.45 291.62-23.85 292.44-24.15 293.27-24.45 293.62-24.45L293.62-24.45Q294.17-24.45 294.17-23.85L294.17-23.85Q294.17-23.6 293.54-21.73 292.92-19.85 292.19-16.95 291.47-14.05 291.12-10.65L291.12-10.65 290.07 0.5ZM316.56 0.5L313.02 0.5Q312.47 0.5 312.19-0.03 311.92-0.55 311.84-1.2 311.77-1.85 311.77-2.25L311.77-2.25Q311.77-2.95 311.87-4.05 311.97-5.15 312.12-6.38 312.27-7.6 312.42-8.5L312.42-8.5 313.27-13.7Q313.42-14.7 313.56-15.58 313.72-16.45 313.72-17.45L313.72-17.45Q313.72-18.2 313.42-18.6 313.12-19 312.62-19L312.62-19Q311.97-19 310.47-17.75 308.97-16.5 307.27-14.18 305.56-11.85 304.19-8.6 302.81-5.35 302.42-1.35L302.42-1.35 301.12-8.75Q302.62-13.1 304.49-16.1 306.37-19.1 308.31-20.95 310.27-22.8 312.09-23.65 313.92-24.5 315.31-24.5L315.31-24.5Q316.81-24.5 317.74-23.95 318.67-23.4 319.09-22.43 319.52-21.45 319.52-20.15L319.52-20.15Q319.52-18.9 319.34-17.68 319.17-16.45 318.97-15.15L318.97-15.15 316.56 0.5ZM298.06 0.7L298.06 0.7Q297.42 0.7 297.09 0.48 296.77 0.25 296.74-0.7 296.72-1.65 296.97-3.75L296.97-3.75 299.31-24.55 302.81-24.55Q303.56-24.55 304.17-23.45 304.77-22.35 304.77-20.95L304.77-20.95Q304.77-20.3 304.39-18.93 304.02-17.55 303.52-16.03 303.02-14.5 302.62-13.35L302.62-13.35 301.31-9.25 303.17-9.55 302.37-1.35Q302.31-0.85 301.77-0.45 301.22-0.05 300.47 0.2 299.72 0.45 299.04 0.58 298.37 0.7 298.06 0.7ZM331.16 11.05L331.16 11.05Q328.76 11.05 326.79 10.33 324.81 9.6 323.64 8.05 322.46 6.5 322.46 4L322.46 4Q322.46 3.15 323.01 3.15L323.01 3.15Q323.26 3.15 323.66 3.35 324.06 3.55 324.71 3.9L324.71 3.9Q325.61 4.4 327.14 5.18 328.66 5.95 330.31 6.55 331.96 7.15 333.21 7.15L333.21 7.15Q334.01 7.15 334.74 6.8 335.46 6.45 336.14 5.48 336.81 4.5 337.41 2.68 338.01 0.85 338.56-2.1L338.56-2.1 341.06-15.65 340.16-16.85 340.21-23.25Q343.41-23.65 344.86-24.05 346.31-24.45 346.86-24.45L346.86-24.45Q347.36-24.45 347.36-23.85L347.36-23.85Q347.36-23.6 346.74-21.75 346.11-19.9 345.41-17 344.71-14.1 344.56-10.5L344.56-10.5 344.21-1.5Q344.06 2 342.84 4.4 341.61 6.8 339.66 8.28 337.71 9.75 335.49 10.4 333.26 11.05 331.16 11.05ZM328.01 0.45L328.01 0.45Q325.21 0.45 324.01-1.83 322.81-4.1 322.81-8.2L322.81-8.2Q322.81-11.65 323.86-14.63 324.91-17.6 326.74-19.8 328.56-22 330.99-23.25 333.41-24.5 336.16-24.5L336.16-24.5Q338.31-24.5 340.09-23.93 341.86-23.35 343.11-22.75L343.11-22.75 341.66-17.5Q340.31-18.4 338.64-19.15 336.96-19.9 335.54-20.33 334.11-20.75 333.41-20.75L333.41-20.75Q332.01-20.75 330.89-19.35 329.76-17.95 329.11-15.6 328.46-13.25 328.46-10.35L328.46-10.35Q328.46-7.45 328.89-5.95 329.31-4.45 330.26-4.45L330.26-4.45Q330.91-4.45 332.44-5.85 333.96-7.25 336.11-10.6 338.26-13.95 340.71-19.85L340.71-19.85 342.11-15.4Q339.41-9.4 336.99-5.93 334.56-2.45 332.36-1 330.16 0.45 328.01 0.45Z" opacity="1" transform="matrix(1,0,0,1,0,0)" fill="#dedede" class="slogan-text-1" data-fill-palette-color="secondary" id="text-1"></path></svg></g></svg></g></svg></g></svg></g><g transform="matrix(1,0,0,1,86.43838231406895,0)"><svg viewBox="0 0 71.55459537186205 71.55459537186205" height="71.55459537186205" width="71.55459537186205"><g><svg xmlns="http://www.w3.org/2000/svg" xmlns:xlink="http://www.w3.org/1999/xlink" version="1.1" x="0" y="0" viewBox="1.371 1.371 61.257999999999996 61.257999999999996" enable-background="new 0 0 64 64" xml:space="preserve" height="71.55459537186205" width="71.55459537186205" class="icon-icon-0" data-fill-palette-color="accent" id="icon-0"><g fill="#fc0d00" data-fill-palette-color="accent"><path d="M32 62.629C15.111 62.629 1.371 48.889 1.371 32S15.111 1.371 32 1.371 62.629 15.111 62.629 32 48.889 62.629 32 62.629zM32 3.371C16.214 3.371 3.371 16.214 3.371 32S16.214 60.629 32 60.629 60.629 47.786 60.629 32 47.786 3.371 32 3.371z" fill="#fc0d00" data-fill-palette-color="accent"></path><path d="M20.167 58.955c-1.786 0-3.449-0.402-4.821-1.251l1.053-1.701c3.623 2.241 10.165 0.402 14.284-4.018 2.449-2.628 7.307-9.9-0.442-20.65-4.608-6.392-4.314-13.307 0.785-18.497 5.219-5.31 15.085-8.023 21.457-3.599l-1.141 1.643c-4.938-3.428-13.763-1.858-18.89 3.358-4.424 4.503-4.639 10.308-0.589 15.925 5.978 8.293 6.083 16.959 0.284 23.184C28.819 56.92 24.184 58.955 20.167 58.955z" fill="#fc0d00" data-fill-palette-color="accent"></path><path d="M21.655 48.375c-2.744 0-4.976-2.232-4.976-4.977 0-2.743 2.232-4.976 4.976-4.976s4.976 2.232 4.976 4.976C26.631 46.143 24.398 48.375 21.655 48.375zM21.655 40.423c-1.641 0-2.976 1.335-2.976 2.976 0 1.642 1.335 2.977 2.976 2.977 1.641 0 2.976-1.335 2.976-2.977C24.631 41.758 23.296 40.423 21.655 40.423z" fill="#fc0d00" data-fill-palette-color="accent"></path><path d="M42.82 29.07c-2.743 0-4.975-2.231-4.975-4.975s2.231-4.975 4.975-4.975 4.976 2.232 4.976 4.975S45.563 29.07 42.82 29.07zM42.82 21.12c-1.641 0-2.975 1.334-2.975 2.975 0 1.64 1.334 2.975 2.975 2.975s2.976-1.334 2.976-2.975C45.796 22.455 44.461 21.12 42.82 21.12z" fill="#fc0d00" data-fill-palette-color="accent"></path></g></svg></g></svg></g><g></g></svg></g></svg></g></svg></g><g><path d="M151.29 36.231A98.959 98.959 0 0 1 244.23 36.231L240.034 36.231A94.763 94.763 0 0 0 155.486 36.231L151.29 36.231M151.29 210.969A98.959 98.959 0 0 0 244.23 210.969L240.034 210.969A94.763 94.763 0 0 1 155.486 210.969L151.29 210.969" fill="#89939e" stroke="transparent" data-fill-palette-color="tertiary"></path></g></svg></g><defs></defs></svg><rect width="395.52" height="247.2" fill="none" stroke="none" visibility="hidden"></rect></g></svg></g></svg>